<?xml version="1.0" standalone="no"?><!DOCTYPE svg PUBLIC "-//W3C//DTD SVG 1.1//EN" "http://www.w3.org/Graphics/SVG/1.1/DTD/svg11.dtd"><svg t="1743563065695" class="icon" viewBox="0 0 1024 1024" version="1.1" xmlns="http://www.w3.org/2000/svg" p-id="2256" xmlns:xlink="http://www.w3.org/1999/xlink" width="200" height="200"><path d="M430.626133 248.968533c15.906133-18.6368 30.5152-34.6112 47.3088-52.087466 0.887467-0.955733 28.398933-29.354667 35.0208-36.4544l59.118934-63.6928A224.4608 224.4608 0 0 1 737.6896 22.9376c62.532267 0 121.309867 26.2144 165.410133 73.591467 90.453333 97.621333 90.453333 255.1808 0 352.802133L825.344 533.026133c-20.343467 22.459733-56.251733 26.965333-86.6304-3.072-25.668267-25.463467-27.921067-63.624533-3.754667-90.248533l77.687467-83.626667a124.245333 124.245333 0 0 0 0-166.229333 101.853867 101.853867 0 0 0-75.025067-33.518933c-28.330667 0-54.954667 11.8784-75.229866 33.655466l-56.388267 60.757334-29.9008 32.768a4914.517333 4914.517333 0 0 1-28.330667 31.1296c-22.528 24.1664-63.2832 38.912-96.938666 21.2992-36.0448-18.978133-39.458133-64.580267-20.2752-86.971734zM197.4272 494.933333c19.2512-21.026133 56.32-21.230933 86.6304 8.328534 23.620267 27.170133 25.3952 58.5728 2.116267 84.036266L208.0768 678.638933a124.245333 124.245333 0 0 0-0.136533 166.024534c20.2752 21.845333 46.830933 33.723733 75.1616 33.723733 28.535467-0.068267 55.842133-12.288 75.3664-33.723733a13249.058133 13249.058133 0 0 1 155.511466-167.253334c18.978133-19.729067 62.2592-30.242133 91.136-9.216 31.266133 22.7328 35.2256 64.443733 13.7216 86.562134l-169.984 183.296a224.529067 224.529067 0 0 1-165.6832 73.864533 224.4608 224.4608 0 0 1-165.341866-73.728C27.306667 840.567467 27.306667 683.008 117.418667 585.728l79.872-90.794667z" fill="#3B82F6" p-id="2257"></path></svg>